<svg width="50" height="50" viewBox="0 0 50 50" fill="none" xmlns="http://www.w3.org/2000/svg">
<path fill-rule="evenodd" clip-rule="evenodd" d="M14.2649 46.3605V23.4352H5.24599C4.40615 23.4352 3.72502 24.1128 3.71789 24.9527L3.56634 44.8199C3.55921 45.6686 4.24569 46.3605 5.09444 46.3605H14.2649ZM15.0531 19.869L25.7623 2.50704C26.6788 0.953966 28.346 0 30.1505 0H30.8013C34.0109 0 36.4217 2.93321 35.7994 6.08216L34.0912 14.732C34.0038 15.1688 34.1268 15.4202 34.3122 15.6003C34.5422 15.825 34.997 16.0479 35.662 16.0479H44.9038C48.1633 16.0479 50.583 19.0666 49.8769 22.2477L49.8698 22.2762L43.8036 45.9682C43.274 48.2827 41.2146 49.9267 38.8377 49.9267H5.09444C2.26645 49.9267 -0.0212483 47.6229 0.000148883 44.7931L0.151697 24.9242C0.173094 22.1265 2.44831 19.869 5.24599 19.869H15.0531Z" fill="#6B5581"/>
</svg>
