<svg width="77" height="77" viewBox="0 0 77 77" fill="none" xmlns="http://www.w3.org/2000/svg">
<circle cx="38.5002" cy="38.5012" r="27.5" transform="rotate(-32.9598 38.5002 38.5012)" fill="#6B5581"/>
<path d="M41.1689 49.2995H36.3906C33.0102 49.2995 30.2397 46.4528 30.2397 42.9453C30.2397 41.9032 31.1039 41.0391 32.146 41.0391C33.1881 41.0391 34.0522 41.9032 34.0522 42.9453C34.0522 44.3432 35.0944 45.487 36.3906 45.487H41.1689C42.1601 45.487 42.9481 44.5974 42.9481 43.5045C42.9481 42.132 42.5669 41.9286 41.7027 41.6236L34.0522 38.9549C32.4256 38.3703 30.2397 37.2012 30.2397 33.4649C30.2397 30.2878 32.756 27.6699 35.8314 27.6699H40.6097C43.9901 27.6699 46.7606 30.5166 46.7606 34.0241C46.7606 35.0662 45.8964 35.9303 44.8543 35.9303C43.8122 35.9303 42.9481 35.0662 42.9481 34.0241C42.9481 32.6262 41.906 31.4824 40.6097 31.4824H35.8314C34.8402 31.4824 34.0522 32.372 34.0522 33.4649C34.0522 34.8374 34.4335 35.0407 35.2976 35.3457L42.9481 38.0145C44.5747 38.5991 46.7606 39.7682 46.7606 43.5045C46.7606 46.707 44.2443 49.2995 41.1689 49.2995Z" fill="white"/>
<path d="M38.5005 51.8408C37.4584 51.8408 36.5942 50.9767 36.5942 49.9346V27.0596C36.5942 26.0175 37.4584 25.1533 38.5005 25.1533C39.5426 25.1533 40.4067 26.0175 40.4067 27.0596V49.9346C40.4067 50.9767 39.5426 51.8408 38.5005 51.8408Z" fill="white"/>
<path d="M38.5002 65.8197C23.4281 65.8197 11.1772 53.5688 11.1772 38.4967C11.1772 23.4247 23.4281 11.1738 38.5002 11.1738C39.5422 11.1738 40.4064 12.038 40.4064 13.0801C40.4064 14.1222 39.5422 14.9863 38.5002 14.9863C25.5377 14.9863 14.9897 25.5342 14.9897 38.4967C14.9897 51.4592 25.5377 62.0072 38.5002 62.0072C51.4627 62.0072 62.0106 51.4592 62.0106 38.4967C62.0106 37.4547 62.8747 36.5905 63.9168 36.5905C64.9589 36.5905 65.8231 37.4547 65.8231 38.4967C65.8231 53.5688 53.5722 65.8197 38.5002 65.8197Z" fill="#6B5581"/>
</svg>
