<svg width="646" height="646" viewBox="0 0 646 646" fill="none" xmlns="http://www.w3.org/2000/svg">
<mask id="mask0_183_3983" style="mask-type:luminance" maskUnits="userSpaceOnUse" x="0" y="0" width="646" height="646">
<path d="M0 0H646V646H0V0Z" fill="white"/>
</mask>
<g mask="url(#mask0_183_3983)">
<path fill-rule="evenodd" clip-rule="evenodd" d="M318.987 390.936C393.784 408.27 419.413 446.658 376.228 476.679C333.044 506.701 237.397 516.988 162.6 499.654C87.802 482.321 62.1742 443.933 105.358 413.911C148.543 383.889 244.189 373.603 318.987 390.936Z" fill="#E7E8E9"/>
<path fill-rule="evenodd" clip-rule="evenodd" d="M252.643 510.642L273.151 497.026L284.216 469.432L340.055 431.618L357.683 439.77L373.764 429.354V408.744L373.763 408.745V186.888V186.875L194.72 116.566L73.3848 198.274L73.599 198.522V420.513V440.329L94.7165 448.621L110.193 434.883L216.051 476.453L231.527 502.347L252.643 510.639V510.642Z" fill="#606163"/>
<path fill-rule="evenodd" clip-rule="evenodd" d="M252.644 510.641L273.151 497.027L284.534 468.639L252.644 490.029V510.641Z" fill="#606163"/>
<path fill-rule="evenodd" clip-rule="evenodd" d="M373.764 429.354L357.684 439.77L339.821 431.511L373.764 408.744V429.354Z" fill="#606163"/>
<path fill-rule="evenodd" clip-rule="evenodd" d="M194.72 116.566L373.765 186.876V408.955L194.72 338.645L73.3843 198.275L194.72 116.566Z" fill="#D2D4D5"/>
<path fill-rule="evenodd" clip-rule="evenodd" d="M73.6001 198.434L252.645 268.744V490.823L73.6001 420.513V198.434Z" fill="#96989B"/>
<path fill-rule="evenodd" clip-rule="evenodd" d="M94.2212 232.462L230.847 286.111L229.671 453.659L94.2212 401.579V232.462Z" fill="#4D4C4E"/>
<path fill-rule="evenodd" clip-rule="evenodd" d="M95.3965 234.031L230.846 287.222V455.228L95.3965 402.037V234.031Z" fill="#AAACAE"/>
<path fill-rule="evenodd" clip-rule="evenodd" d="M139.641 298.635C155.035 304.611 167.519 324.88 167.519 343.906C167.519 355.209 163.113 363.534 156.311 367.17C151.566 369.708 142.52 370.351 137.665 368.468C137.337 368.342 137.011 368.006 136.686 367.866C151.661 373.083 163.651 362.554 163.651 343.906C163.651 324.88 151.169 304.613 135.773 298.635C131.367 296.924 127.202 296.572 123.498 297.382C128.216 295.649 135.996 297.221 139.641 298.635Z" fill="#4D4C4E"/>
<path fill-rule="evenodd" clip-rule="evenodd" d="M149.335 369.232C147.524 369.49 145.641 369.598 143.845 369.541C142.24 369.4 140.58 369.065 138.88 368.523C152.813 372.023 163.651 361.635 163.651 343.907C163.651 324.88 151.17 304.613 135.772 298.635C131.367 296.925 127.202 296.572 123.497 297.383C126.049 296.446 129.498 296.475 132.704 296.924C134.17 297.203 135.675 297.635 137.21 298.238C152.606 304.284 165.087 324.787 165.087 344.031C165.087 357.844 158.658 367.254 149.335 369.232Z" fill="#737577"/>
<path fill-rule="evenodd" clip-rule="evenodd" d="M135.772 298.237C151.169 304.284 163.651 324.787 163.651 344.031C163.651 363.277 151.169 373.976 135.772 367.931C120.376 361.883 107.894 341.381 107.894 322.136C107.894 302.89 120.376 292.19 135.772 298.237Z" fill="#96989B"/>
<path fill-rule="evenodd" clip-rule="evenodd" d="M128.578 318.873C128.652 318.865 128.729 318.862 128.807 318.862L128.984 318.863C128.847 318.863 128.711 318.867 128.578 318.873ZM136.711 319.519C142.701 321.87 147.562 329.853 147.562 337.345C147.562 342.801 144.984 346.494 141.269 347.186C140.933 347.248 140.632 347.234 140.294 347.234L136.494 347.233C140.366 346.682 143.077 342.942 143.077 337.345C143.077 329.853 138.219 321.872 132.226 319.519C131.109 319.081 130.034 318.869 129.022 318.863L132.839 318.888C134.045 318.896 135.349 318.985 136.711 319.519Z" fill="#737577"/>
<path fill-rule="evenodd" clip-rule="evenodd" d="M144.298 345.76C143.916 346.076 143.509 346.348 143.076 346.57H138.59C139.023 346.347 139.432 346.076 139.814 345.76H144.298ZM146.224 343.349C146.073 343.633 145.909 343.903 145.736 344.158H141.252C141.426 343.903 141.589 343.633 141.74 343.349H146.224ZM147.268 340.374C147.212 340.652 147.146 340.922 147.073 341.185H142.589C142.662 340.922 142.727 340.651 142.782 340.374H147.268ZM147.553 336.785L147.562 337.345L147.559 337.596H143.075L143.077 337.345L143.066 336.785H147.553ZM146.959 332.643C147.027 332.914 147.089 333.185 147.146 333.455H142.662C142.605 333.185 142.543 332.914 142.474 332.643H146.959ZM145.47 328.519C145.598 328.786 145.72 329.058 145.837 329.33H141.352C141.235 329.057 141.113 328.787 140.986 328.519H145.47ZM143.326 324.93C143.52 325.194 143.709 325.463 143.894 325.74H139.41C139.226 325.464 139.035 325.194 138.841 324.93H143.326ZM140.611 321.956C140.906 322.212 141.194 322.484 141.475 322.766H136.992C136.71 322.484 136.422 322.212 136.127 321.956H140.611ZM136.773 319.545C137.331 319.768 137.878 320.04 138.414 320.356H133.93C133.393 320.041 132.845 319.768 132.287 319.545H136.773Z" fill="#4D4C4E"/>
<path fill-rule="evenodd" clip-rule="evenodd" d="M127.802 310.321L122.663 297.176C122.101 297.332 121.55 297.513 121.01 297.722L126.183 310.954C126.356 311.399 126.861 311.621 127.308 311.446C127.754 311.272 127.976 310.768 127.802 310.321ZM121.217 315.565C121.536 315.922 121.505 316.472 121.149 316.79C120.792 317.11 120.242 317.079 119.923 316.722L111.187 306.987C111.471 306.436 111.773 305.906 112.09 305.395L121.217 315.565ZM159.453 360.776C159.77 360.264 160.071 359.734 160.355 359.183L151.618 349.446C151.3 349.09 150.75 349.06 150.393 349.378C150.036 349.698 150.005 350.248 150.324 350.604L159.453 360.776ZM118.537 325.38C118.984 325.554 119.204 326.06 119.03 326.506C118.856 326.952 118.351 327.173 117.905 326.999L107.904 323.072C107.897 322.759 107.894 322.446 107.894 322.135C107.894 321.823 107.897 321.512 107.904 321.205L118.537 325.38ZM163.641 344.964L153.005 340.787C152.56 340.614 152.338 340.107 152.512 339.66C152.687 339.215 153.192 338.994 153.639 339.167L163.641 343.095C163.647 343.408 163.651 343.719 163.651 344.03C163.651 344.344 163.647 344.655 163.641 344.964ZM120.302 337.257C120.758 337.109 121.249 337.359 121.397 337.815C121.544 338.271 121.294 338.762 120.838 338.91L111.948 341.834C111.73 341.297 111.519 340.756 111.315 340.214L120.302 337.257ZM160.232 325.954L151.246 328.91C150.79 329.059 150.298 328.811 150.147 328.355C149.997 327.899 150.245 327.406 150.701 327.256L159.595 324.331C159.816 324.868 160.028 325.409 160.232 325.954ZM126.241 348.214C126.476 347.797 127.005 347.649 127.422 347.883C127.839 348.119 127.987 348.647 127.752 349.064L122.447 358.464C122.033 358.02 121.625 357.565 121.225 357.1L126.241 348.214ZM150.321 309.067L145.307 317.956C145.072 318.372 144.543 318.521 144.126 318.285C143.709 318.051 143.561 317.521 143.797 317.104L149.1 307.702C149.512 308.146 149.92 308.603 150.321 309.067ZM134.901 355.02C134.901 354.54 135.291 354.149 135.772 354.149C136.254 354.149 136.643 354.54 136.643 355.02V368.253C136.354 368.151 136.064 368.044 135.772 367.93C135.481 367.815 135.191 367.694 134.901 367.569V355.02ZM136.643 298.597V311.146C136.643 311.627 136.254 312.016 135.772 312.016C135.291 312.016 134.901 311.627 134.901 311.146V297.912C135.191 298.015 135.481 298.122 135.772 298.236C136.064 298.351 136.354 298.472 136.643 298.597ZM148.875 368.992L143.734 355.847C143.56 355.402 143.781 354.896 144.228 354.722C144.674 354.548 145.179 354.77 145.354 355.216L150.528 368.445C149.99 368.654 149.439 368.838 148.875 368.992Z" fill="#4D4C4E"/>
<path fill-rule="evenodd" clip-rule="evenodd" d="M73.5996 440.33L94.716 448.621L110.193 434.883L73.5996 420.513V440.33Z" fill="#858789"/>
<path fill-rule="evenodd" clip-rule="evenodd" d="M252.644 510.64L231.527 502.347L216.051 476.452L252.644 490.824V510.64Z" fill="#858789"/>
<path fill-rule="evenodd" clip-rule="evenodd" d="M132.226 319.516C138.22 321.87 143.08 329.853 143.08 337.346C143.08 344.839 138.22 349.005 132.226 346.651C126.23 344.297 121.372 336.314 121.372 328.821C121.372 321.327 126.23 317.162 132.226 319.516Z" fill="#AAACAE"/>
<path fill-rule="evenodd" clip-rule="evenodd" d="M200.108 336.874C209.934 340.338 217.899 352.089 217.899 363.119C217.899 372.867 211.68 378.788 203.454 377.643C209.653 376.709 213.974 371.244 213.974 363.12C213.974 352.089 206.008 340.338 196.183 336.873C195.04 336.468 193.921 336.198 192.839 336.048C195.059 335.714 197.519 335.961 200.108 336.874Z" fill="#4D4C4E"/>
<path fill-rule="evenodd" clip-rule="evenodd" d="M197.288 336.873C207.115 340.338 215.079 352.09 215.079 363.12C215.079 374.151 207.115 380.283 197.288 376.818C187.462 373.354 179.498 361.601 179.498 350.572C179.498 339.54 187.462 333.408 197.288 336.873Z" fill="#737577"/>
<path fill-rule="evenodd" clip-rule="evenodd" d="M203.224 377.773C201.367 377.855 199.37 377.553 197.288 376.82C187.462 373.353 179.497 361.603 179.497 350.571C179.497 341.382 185.025 335.594 192.551 335.92C185.645 336.228 180.696 341.878 180.696 350.571C180.696 361.603 188.661 373.353 198.487 376.82C200.127 377.398 201.715 377.708 203.224 377.773Z" fill="#D2D4D5"/>
<path fill-rule="evenodd" clip-rule="evenodd" d="M373.764 186.888V408.818L373.651 408.868L252.644 490.813V268.746L373.764 186.888Z" fill="#737577"/>
<path fill-rule="evenodd" clip-rule="evenodd" d="M248.652 154.613L166.565 205.656C148.506 216.886 182.547 234.703 200.364 223.404L281.632 171.871C296.959 162.152 261.371 146.704 248.652 154.613Z" fill="#4D4C4E"/>
<path fill-rule="evenodd" clip-rule="evenodd" d="M251.426 153.351L166.566 205.657C160.186 209.589 160.26 214.307 163.819 218.292C163.59 215.657 165.051 212.929 168.963 210.576L255.715 158.397L251.426 153.351Z" fill="#858789"/>
<path fill-rule="evenodd" clip-rule="evenodd" d="M201.77 62.276L216.56 62.2803C245.061 70.35 266.749 102.582 266.749 138.488C266.749 159.148 260.529 178.267 249.854 192.336C238.169 199.86 226.46 207.345 214.612 214.686L201.77 214.698C165.885 214.698 136.792 180.577 136.792 138.488C136.792 96.3979 165.885 62.276 201.77 62.276Z" fill="#FAA932"/>
<path fill-rule="evenodd" clip-rule="evenodd" d="M141.291 166.394H162.673V171.62H143.242C142.538 169.912 141.888 168.17 141.291 166.394ZM147.458 180.33L170.24 180.329V184.684H150.09C149.171 183.272 148.293 181.818 147.458 180.33ZM156.166 192.765H178.295V196.771H159.911C158.618 195.493 157.368 194.156 156.166 192.765ZM179.718 210.188L203.858 210.189V212.802H187.338C184.735 212.109 182.192 211.235 179.718 210.188ZM166.18 202.249H188.961V205.733H171.185C169.469 204.658 167.799 203.495 166.18 202.249ZM136.834 135.884H157.678V141.109H136.835C136.808 140.239 136.792 139.366 136.792 138.489C136.792 137.616 136.808 136.748 136.834 135.884ZM138.797 119.641L159.366 119.642V124.868H137.83C138.101 123.105 138.423 121.361 138.797 119.641ZM143.242 105.355H162.686V110.582H141.291C141.887 108.806 142.538 107.063 143.242 105.355ZM150.089 92.2911H170.253V96.6463L147.457 96.6474C148.292 95.159 149.17 93.7045 150.089 92.2911ZM159.908 80.2039L178.307 80.2029V84.2087L156.166 84.2097C157.368 82.8206 158.616 81.4811 159.908 80.2039ZM187.338 64.1732L203.871 64.1743V66.7868L179.71 66.7857C182.186 65.7386 184.734 64.8667 187.338 64.1732ZM171.181 71.2423H188.974V74.7256L166.178 74.7266C167.796 73.4811 169.466 72.3179 171.181 71.2423ZM137.831 152.107H159.353V157.333L138.797 157.332C138.424 155.614 138.102 153.871 137.831 152.107Z" fill="#BB7D3C"/>
<path fill-rule="evenodd" clip-rule="evenodd" d="M214.581 62.276C250.466 62.276 279.558 96.3969 279.558 138.487C279.558 153.759 275.725 167.981 269.13 179.905C251.002 191.588 232.961 203.315 214.59 214.698H214.581C178.694 214.698 149.602 180.577 149.602 138.487C149.602 96.3979 178.694 62.276 214.581 62.276Z" fill="#FDDC2C"/>
<path fill-rule="evenodd" clip-rule="evenodd" d="M214.581 76.4283C243.804 76.4283 267.493 104.214 267.493 138.489C267.493 172.762 243.804 200.548 214.581 200.548C185.358 200.548 161.668 172.762 161.668 138.488C161.668 104.214 185.358 76.4283 214.581 76.4283Z" fill="#FAA932"/>
<path fill-rule="evenodd" clip-rule="evenodd" d="M214.581 76.4283C215.457 76.4283 216.328 76.4546 217.194 76.5042C189.185 78.1024 166.893 105.242 166.893 138.488C166.893 171.734 189.185 198.875 217.194 200.472C216.328 200.521 215.457 200.548 214.581 200.548C185.358 200.548 161.668 172.762 161.668 138.488C161.668 104.214 185.358 76.4283 214.581 76.4283Z" fill="#BB7D3C"/>
<path fill-rule="evenodd" clip-rule="evenodd" d="M222.308 174.797C233.124 172.6 239.503 163.324 239.503 154.127C239.503 140.225 228.798 135.217 220.536 130.82C213.964 127.345 210.301 124.687 210.301 121.313C210.301 118.349 212.086 115.691 216.029 115.69C221.005 115.692 226.546 119.577 228.706 121.212C230.582 122.438 232.179 121.621 232.837 120.497L237.625 112.624C238 111.909 238.189 110.069 237.062 109.355C234.783 107.536 229.434 103.645 222.308 102.222V93.5784C222.308 92.8733 222.044 92.2346 221.619 91.7723C221.194 91.31 220.607 91.0218 219.959 91.0218H213.646C212.998 91.0218 212.41 91.31 211.986 91.7723C211.561 92.2336 211.296 92.8743 211.296 93.5794V102.266C200.617 104.561 195.278 113.333 195.278 122.03C195.278 134.296 204.386 139.815 213.494 144.62C219.691 147.891 223.165 150.651 223.165 154.944C223.165 158.522 220.677 162.601 216.92 162.601C211.005 162.601 205.623 162.305 203.003 160.355C202.057 159.65 200.999 159.954 199.81 160.968L195.842 164.348C194.684 165.336 195.466 166.596 196.217 167.414C197.99 169.344 202.862 173.409 211.296 174.803V183.397C211.296 184.1 211.561 184.739 211.986 185.203H211.989C212.414 185.665 213.002 185.952 213.646 185.952H219.959C220.602 185.953 221.19 185.665 221.615 185.203H221.619C222.044 184.74 222.308 184.099 222.308 183.396V174.797Z" fill="#BB7D3C"/>
<path fill-rule="evenodd" clip-rule="evenodd" d="M219.544 174.798C230.362 172.6 236.74 163.324 236.74 154.127C236.74 140.225 226.036 135.216 217.773 130.822C211.2 127.345 207.537 124.687 207.537 121.314C207.537 118.35 209.322 115.691 213.266 115.691C218.242 115.691 223.782 119.577 225.942 121.212C227.82 122.438 229.416 121.621 230.072 120.496L234.861 112.626C235.237 111.91 235.425 110.069 234.299 109.356C232.02 107.536 226.672 103.645 219.544 102.223V93.5794C219.544 92.8743 219.28 92.2336 218.856 91.7713C218.432 91.31 217.844 91.0208 217.196 91.0218L210.882 91.0208C210.234 91.0229 209.647 91.31 209.223 91.7734C208.798 92.2347 208.534 92.8743 208.534 93.5794V102.266C197.854 104.56 192.516 113.333 192.516 122.03C192.516 134.296 201.622 139.815 210.73 144.619C216.927 147.891 220.401 150.652 220.401 154.945C220.401 158.524 217.678 161.077 213.923 161.077C208.008 161.078 203.219 157.398 200.591 155.456C199.651 154.74 198.148 154.74 197.397 156.068L193.078 164.349C192.421 165.677 192.702 166.597 193.453 167.416C195.226 169.345 200.098 173.408 208.534 174.803V183.397C208.534 184.101 208.798 184.74 209.223 185.204H209.225C209.65 185.666 210.239 185.952 210.882 185.951L217.196 185.952C217.838 185.952 218.427 185.664 218.852 185.202H218.856C219.28 184.739 219.544 184.101 219.544 183.397V174.798Z" fill="#FDDC2C"/>
<path fill-rule="evenodd" clip-rule="evenodd" d="M214.58 62.276C215.193 62.275 215.801 62.2866 216.41 62.3077C181.37 63.4435 153.26 97.1157 153.26 138.488C153.26 179.21 180.495 212.471 214.765 214.59L214.59 214.698H214.58C178.694 214.698 149.602 180.577 149.602 138.488C149.602 96.3979 178.694 62.276 214.58 62.276Z" fill="#FDF5A1"/>
<path fill-rule="evenodd" clip-rule="evenodd" d="M200.477 155.374C199.533 154.741 198.119 154.792 197.397 156.068L193.078 164.349C192.421 165.677 192.702 166.597 193.453 167.416C195.226 169.345 200.098 173.407 208.534 174.803V183.397C208.534 184.1 208.798 184.74 209.223 185.204H209.225C209.65 185.666 210.239 185.952 210.882 185.951L213.335 185.952C212.703 185.945 212.127 185.658 211.709 185.202L211.706 185.203C211.28 184.74 211.016 184.1 211.016 183.397V174.803C202.58 173.407 197.709 169.345 195.936 167.416C195.185 166.596 194.903 165.677 195.561 164.349L199.879 156.067C200.046 155.774 200.25 155.545 200.477 155.374ZM213.334 91.0218C212.699 91.0303 212.123 91.3163 211.706 91.7723C211.28 92.2347 211.016 92.8743 211.016 93.5794V102.266C200.336 104.56 194.998 113.333 194.998 122.03C194.998 134.296 204.106 139.815 213.213 144.62C219.41 147.891 222.884 150.65 222.884 154.944C222.884 158.522 220.162 161.077 216.406 161.076C215.925 161.077 215.452 161.052 214.985 161.006C218.181 160.572 220.401 158.176 220.401 154.945C220.401 150.651 216.927 147.891 210.73 144.619C201.622 139.815 192.516 134.296 192.516 122.03C192.516 113.333 197.854 104.56 208.534 102.266V93.5794C208.534 92.8743 208.798 92.2347 209.223 91.7734C209.647 91.31 210.234 91.0229 210.882 91.0208L213.334 91.0218ZM214.577 115.777C219.182 116.351 223.97 119.718 225.942 121.212C227.126 121.987 228.2 121.946 228.996 121.528C228.809 121.444 228.618 121.337 228.425 121.212C226.265 119.577 220.724 115.691 215.748 115.691C215.335 115.691 214.943 115.722 214.577 115.777Z" fill="#FDF5A1"/>
<path fill-rule="evenodd" clip-rule="evenodd" d="M217.194 76.4283C246.417 76.4283 270.106 104.214 270.106 138.488C270.106 172.762 246.417 200.548 217.194 200.548C216.757 200.548 216.322 200.542 215.887 200.528C244.506 199.713 267.492 172.249 267.492 138.488C267.492 104.727 244.506 77.2611 215.887 76.4483C216.322 76.4346 216.757 76.4283 217.194 76.4283Z" fill="#FDF5A1"/>
<path fill-rule="evenodd" clip-rule="evenodd" d="M88.2632 253.868L99.0499 255.753V282.903C99.0499 283.537 98.8546 283.972 98.2846 284.244C97.4106 284.665 95.6468 284.971 93.6149 284.614C91.5639 284.255 89.7874 283.524 88.9219 282.768C88.2642 282.191 88.2885 281.615 88.2632 280.992V253.868ZM88.2632 352.114L99.0499 353.999V381.149C99.0499 381.783 98.8546 382.217 98.2846 382.49C97.4106 382.909 95.6468 383.217 93.6149 382.86C91.5639 382.5 89.7874 381.769 88.9219 381.013C88.2642 380.437 88.2885 379.861 88.2632 379.237V352.114Z" fill="#737577"/>
<path fill-rule="evenodd" clip-rule="evenodd" d="M89.8814 254.151V283.407C89.4961 283.202 89.171 282.986 88.9219 282.768C88.2642 282.193 88.2896 281.616 88.2632 280.992V253.868L89.8814 254.151ZM88.2632 352.114L89.8814 352.397V381.652C89.4961 381.447 89.171 381.231 88.9219 381.013C88.2642 380.437 88.2896 379.861 88.2632 379.237V352.114Z" fill="#858789"/>
<path fill-rule="evenodd" clip-rule="evenodd" d="M96.7036 284.682V255.344L99.0512 255.753V282.903C99.0512 283.539 98.8559 283.973 98.2848 284.245C97.908 284.428 97.3633 284.587 96.7036 284.682ZM96.7036 353.589L99.0512 353.999V381.149C99.0512 381.784 98.8559 382.217 98.2848 382.491C97.908 382.672 97.3633 382.832 96.7036 382.927V353.589Z" fill="#4D4C4E"/>
<path fill-rule="evenodd" clip-rule="evenodd" d="M99.0504 268.17V269.381C99.0504 270.016 98.8551 270.45 98.2841 270.723C97.4101 271.143 95.6462 271.449 93.6153 271.092C91.5644 270.733 89.7879 270.002 88.9223 269.246C88.2647 268.669 88.289 268.093 88.2637 267.469V266.23C88.289 266.853 88.2647 267.429 88.9223 268.006C89.7879 268.762 91.5644 269.492 93.6153 269.852C95.6462 270.208 97.4101 269.902 98.2841 269.482C98.8467 269.214 99.0451 268.789 99.0504 268.17Z" fill="#BEC0C2"/>
<path fill-rule="evenodd" clip-rule="evenodd" d="M99.0504 366.539V367.748C99.0504 368.384 98.8551 368.819 98.2841 369.091C97.4101 369.511 95.6462 369.816 93.6153 369.461C91.5644 369.102 89.7879 368.37 88.9223 367.614C88.2647 367.038 88.289 366.462 88.2637 365.839V364.598C88.289 365.221 88.2647 365.798 88.9223 366.374C89.7879 367.131 91.5644 367.861 93.6153 368.22C95.6462 368.577 97.4101 368.271 98.2841 367.851C98.8467 367.582 99.0451 367.158 99.0504 366.539Z" fill="#BEC0C2"/>
<path fill-rule="evenodd" clip-rule="evenodd" d="M197.966 345.879C203.921 347.978 208.742 355.093 208.742 361.775C208.742 367.817 204.795 371.433 199.633 370.513C203.213 369.811 205.68 366.551 205.68 361.775C205.68 355.093 200.856 347.977 194.906 345.879C194.34 345.679 193.784 345.533 193.24 345.435C194.668 345.155 196.272 345.281 197.966 345.879Z" fill="#4D4C4E"/>
<path fill-rule="evenodd" clip-rule="evenodd" d="M196.012 345.878C201.962 347.976 206.786 355.093 206.786 361.775C206.786 368.454 201.962 372.168 196.012 370.069C190.062 367.971 185.238 360.854 185.238 354.173C185.238 347.494 190.062 343.779 196.012 345.878Z" fill="#96989B"/>
<path fill-rule="evenodd" clip-rule="evenodd" d="M199.768 370.639C198.598 370.714 197.332 370.535 196.011 370.07C190.062 367.971 185.237 360.854 185.237 354.174C185.237 348.54 188.668 345.016 193.313 345.311C189.214 345.577 186.294 348.978 186.294 354.174C186.294 360.854 191.118 367.971 197.067 370.07C198 370.398 198.904 370.584 199.768 370.639Z" fill="#D2D4D5"/>
<path fill-rule="evenodd" clip-rule="evenodd" d="M195.948 354.889C198.57 355.92 200.714 359.234 200.714 362.26V400.071C200.714 403.097 198.571 404.729 195.949 403.699L195.945 403.697C197.08 403.136 197.815 401.842 197.815 400.071V362.26C197.815 359.235 195.674 355.922 193.053 354.891C193.857 354.493 194.862 354.462 195.948 354.889Z" fill="#4D4C4E"/>
<path fill-rule="evenodd" clip-rule="evenodd" d="M194.267 354.888C196.889 355.918 199.033 359.235 199.033 362.26V400.069C199.033 403.095 196.889 404.728 194.267 403.698C191.646 402.669 189.501 399.352 189.501 396.326V358.517C189.501 355.492 191.646 353.859 194.267 354.888Z" fill="#96989B"/>
<path fill-rule="evenodd" clip-rule="evenodd" d="M196.311 403.966C195.691 404.065 194.998 403.985 194.267 403.699C191.646 402.669 189.502 399.353 189.502 396.327V358.517C189.502 355.879 191.13 354.301 193.282 354.62C191.674 354.876 190.559 356.332 190.559 358.517V396.327C190.559 399.353 192.703 402.669 195.324 403.699C195.663 403.832 195.992 403.919 196.311 403.966Z" fill="#D2D4D5"/>
<path fill-rule="evenodd" clip-rule="evenodd" d="M135.904 347.297C134.756 347.362 133.515 347.159 132.225 346.652C126.231 344.297 121.371 336.315 121.371 328.821C121.371 322.557 124.769 318.62 129.385 318.873C125.204 319.117 122.216 322.944 122.216 328.82C122.216 336.314 127.075 344.297 133.071 346.652C134.051 347.037 135.001 347.246 135.904 347.297Z" fill="#D2D4D5"/>
<path fill-rule="evenodd" clip-rule="evenodd" d="M144.927 369.601C142.059 369.719 138.979 369.188 135.772 367.93C120.375 361.883 107.895 341.381 107.895 322.135C107.895 306.158 116.497 296.074 128.228 296.567C117.323 297.016 109.495 306.895 109.495 322.135C109.495 341.381 121.977 361.883 137.373 367.93C139.991 368.958 142.525 369.501 144.927 369.601Z" fill="#D2D4D5"/>
<path fill-rule="evenodd" clip-rule="evenodd" d="M132.225 324.256C136.127 325.787 139.288 330.982 139.288 335.856C139.288 340.732 136.127 343.444 132.225 341.912C128.325 340.379 125.163 335.185 125.163 330.309C125.163 325.435 128.325 322.724 132.225 324.256Z" fill="#96989B"/>
<path fill-rule="evenodd" clip-rule="evenodd" d="M134.865 342.31C134.05 342.401 133.158 342.278 132.226 341.911C128.325 340.38 125.164 335.185 125.164 330.31C125.164 326.115 127.504 323.522 130.642 323.857C128.048 324.144 126.219 326.599 126.219 330.31C126.219 335.185 129.381 340.38 133.281 341.911C133.825 342.126 134.355 342.255 134.865 342.31Z" fill="#BEC0C2"/>
<path fill-rule="evenodd" clip-rule="evenodd" d="M230.062 286.913L230.846 287.221V455.227L95.3965 402.036V400.516L230.062 453.398V286.913Z" fill="#BEC0C2"/>
<path fill-rule="evenodd" clip-rule="evenodd" d="M93.6557 252.94C96.6387 253.466 99.058 254.744 99.058 255.797C99.058 256.851 96.6387 257.278 93.6557 256.753C90.6727 256.227 88.2544 254.948 88.2544 253.895C88.2544 252.842 90.6727 252.414 93.6557 252.94Z" fill="#BEC0C2"/>
<path fill-rule="evenodd" clip-rule="evenodd" d="M93.6557 351.185C96.6387 351.71 99.058 352.989 99.058 354.043C99.058 355.095 96.6387 355.522 93.6557 354.997C90.6727 354.472 88.2544 353.193 88.2544 352.139C88.2544 351.087 90.6727 350.66 93.6557 351.185Z" fill="#BEC0C2"/>
</g>
<mask id="mask1_183_3983" style="mask-type:luminance" maskUnits="userSpaceOnUse" x="0" y="0" width="646" height="646">
<path d="M0 0H646V646H0V0Z" fill="white"/>
</mask>
<g mask="url(#mask1_183_3983)">
<path fill-rule="evenodd" clip-rule="evenodd" d="M550.522 448.861C593.841 458.496 608.685 479.835 583.673 496.522C558.664 513.21 503.269 518.928 459.951 509.293C416.631 499.659 401.789 478.32 426.799 461.633C451.809 444.944 507.204 439.226 550.522 448.861Z" fill="#E7E8E9"/>
<path fill-rule="evenodd" clip-rule="evenodd" d="M521.337 435.147C557.788 443.254 570.277 461.209 549.232 475.251C528.188 489.294 481.576 494.104 445.126 485.997C408.676 477.89 396.185 459.934 417.23 445.893C438.275 431.851 484.886 427.039 521.337 435.147Z" fill="#FDDC2C"/>
<path fill-rule="evenodd" clip-rule="evenodd" d="M485.337 489.922C471.705 490.073 457.802 488.817 445.125 485.998C408.674 477.892 396.186 459.935 417.23 445.893C431.747 436.206 458.435 430.914 485.558 431.223C459.996 431.506 435.396 436.735 421.673 445.893C400.627 459.935 413.116 477.892 449.567 485.998C460.869 488.511 473.147 489.783 485.337 489.922Z" fill="#FDF5A1"/>
<path fill-rule="evenodd" clip-rule="evenodd" d="M514.261 439.868C543.943 446.471 554.114 461.091 536.977 472.526C519.839 483.961 481.883 487.878 452.201 481.277C422.519 474.676 412.348 460.054 429.486 448.62C446.623 437.185 484.579 433.267 514.261 439.868Z" fill="#FAA932"/>
<path fill-rule="evenodd" clip-rule="evenodd" d="M559.438 461.105L559.453 477.214C559.559 482.272 556.271 487.409 549.232 492.105C528.188 506.146 481.576 510.958 445.126 502.851C420.517 497.378 406.831 487.416 407.01 477.199L407.011 461.127L407.022 461.073C407.487 471.032 421.099 480.654 445.126 485.997C481.576 494.104 528.187 489.293 549.232 475.251C555.926 470.785 559.222 465.921 559.438 461.105Z" fill="#FAA932"/>
<path fill-rule="evenodd" clip-rule="evenodd" d="M411.531 487.376C410.479 486.248 409.606 485.099 408.917 483.931V467.077C409.606 468.244 410.48 469.393 411.531 470.519V487.376ZM419.469 493.518C418.217 492.78 417.056 492.022 415.986 491.248V474.393C417.055 475.169 418.219 475.925 419.469 476.664V493.518ZM428.954 498.045C427.556 497.499 426.22 496.935 424.948 496.353V479.5C426.219 480.082 427.557 480.645 428.954 481.191V498.045ZM441.39 501.963C439.894 501.586 438.442 501.192 437.036 500.779V483.925C438.441 484.338 439.893 484.732 441.39 485.11V501.963ZM455.324 504.748C453.566 504.482 451.824 504.187 450.098 503.865V487.011C451.824 487.333 453.567 487.627 455.324 487.895V504.748ZM469.611 506.317C467.863 506.195 466.121 506.049 464.385 505.878V489.025C466.121 489.196 467.863 489.341 469.611 489.465V506.317ZM485.853 506.768C484.115 506.792 482.371 506.794 480.627 506.77V489.918C482.371 489.942 484.115 489.94 485.853 489.915V506.768ZM502.077 505.87C500.35 506.04 498.608 506.186 496.851 506.309V489.457C498.606 489.333 500.35 489.187 502.077 489.017V505.87ZM516.364 503.866C514.649 504.185 512.905 504.476 511.138 504.743V487.891C512.906 487.623 514.649 487.332 516.364 487.012V503.866ZM529.428 500.783C528.009 501.199 526.557 501.594 525.072 501.968V485.116C526.557 484.742 528.009 484.345 529.428 483.929V500.783ZM541.516 496.348C540.231 496.937 538.894 497.502 537.51 498.042V481.19C538.894 480.649 540.231 480.083 541.516 479.495V496.348ZM550.478 491.24C550.076 491.53 549.662 491.818 549.232 492.104C548.515 492.583 547.767 493.048 546.993 493.505V476.651C547.767 476.195 548.515 475.73 549.232 475.251C549.661 474.964 550.076 474.676 550.478 474.387V491.24ZM557.547 483.967C556.864 485.118 555.993 486.26 554.932 487.389V470.534C555.993 469.405 556.864 468.261 557.547 467.109V483.967Z" fill="#FAA932"/>
<path fill-rule="evenodd" clip-rule="evenodd" d="M411.531 487.376C410.479 486.248 409.606 485.099 408.917 483.931V467.077C409.606 468.244 410.48 469.393 411.531 470.519V487.376ZM419.469 493.518C418.217 492.78 417.056 492.022 415.986 491.248V474.393C417.055 475.169 418.219 475.925 419.469 476.664V493.518ZM428.954 498.045C427.556 497.499 426.22 496.935 424.948 496.353V479.5C426.219 480.082 427.557 480.645 428.954 481.191V498.045ZM441.39 501.963C439.894 501.586 438.442 501.192 437.036 500.779V483.925C438.441 484.338 439.893 484.732 441.39 485.11V501.963ZM455.324 504.748C453.566 504.482 451.824 504.187 450.098 503.865V487.011C451.824 487.333 453.567 487.627 455.324 487.895V504.748ZM469.611 506.317C467.863 506.195 466.121 506.049 464.385 505.878V489.025C466.121 489.196 467.863 489.341 469.611 489.465V506.317ZM485.853 506.768C484.115 506.792 482.371 506.794 480.627 506.77V489.918C482.371 489.942 484.115 489.94 485.853 489.915V506.768ZM502.077 505.87C500.35 506.04 498.608 506.186 496.851 506.309V489.457C498.606 489.333 500.35 489.187 502.077 489.017V505.87ZM516.364 503.866C514.649 504.185 512.905 504.476 511.138 504.743V487.891C512.906 487.623 514.649 487.332 516.364 487.012V503.866ZM529.428 500.783C528.009 501.199 526.557 501.594 525.072 501.968V485.116C526.557 484.742 528.009 484.345 529.428 483.929V500.783ZM541.516 496.348C540.231 496.937 538.894 497.502 537.51 498.042V481.19C538.894 480.649 540.231 480.083 541.516 479.495V496.348ZM550.478 491.24C550.076 491.53 549.662 491.818 549.232 492.104C548.515 492.583 547.767 493.048 546.993 493.505V476.651C547.767 476.195 548.515 475.73 549.232 475.251C549.661 474.964 550.076 474.676 550.478 474.387V491.24ZM557.547 483.967C556.864 485.118 555.993 486.26 554.932 487.389V470.534C555.993 469.405 556.864 468.261 557.547 467.109V483.967Z" fill="#BB7D3C"/>
<path fill-rule="evenodd" clip-rule="evenodd" d="M530.352 414.18C566.802 422.288 579.292 440.243 558.247 454.284C537.201 468.327 490.591 473.137 454.141 465.031C417.689 456.924 405.2 438.968 426.245 424.926C447.29 410.884 493.9 406.073 530.352 414.18Z" fill="#FDDC2C"/>
<path fill-rule="evenodd" clip-rule="evenodd" d="M494.351 468.955C480.72 469.105 466.816 467.85 454.14 465.029C417.689 456.924 405.2 438.966 426.245 424.924C440.762 415.238 467.45 409.945 494.573 410.255C469.011 410.537 444.411 415.766 430.687 424.924C409.642 438.966 422.13 456.924 458.582 465.029C469.883 467.544 482.162 468.815 494.351 468.955Z" fill="#FDF5A1"/>
<path fill-rule="evenodd" clip-rule="evenodd" d="M523.276 418.901C552.958 425.502 563.129 440.124 545.992 451.557C528.854 462.992 490.898 466.91 461.216 460.309C431.534 453.708 421.363 439.085 438.5 427.651C455.638 416.216 493.594 412.298 523.276 418.901Z" fill="#FAA932"/>
<path fill-rule="evenodd" clip-rule="evenodd" d="M568.452 440.138L568.467 456.247C568.574 461.305 565.285 466.441 558.246 471.137C537.203 485.178 490.589 489.99 454.14 481.884C429.532 476.412 415.844 466.448 416.024 456.232L416.025 440.161L416.036 440.105C416.501 450.064 430.113 459.687 454.14 465.03C490.59 473.137 537.202 468.325 558.246 454.283C564.94 449.817 568.236 444.954 568.452 440.138Z" fill="#FAA932"/>
<path fill-rule="evenodd" clip-rule="evenodd" d="M420.544 466.408C419.492 465.282 418.62 464.131 417.931 462.964V446.111C418.619 447.276 419.493 448.426 420.544 449.552V466.408ZM428.484 472.55C427.231 471.813 426.071 471.055 425 470.281V453.427C426.069 454.202 427.232 454.957 428.484 455.696V472.55ZM437.968 477.078C436.569 476.533 435.234 475.968 433.962 475.386V458.534C435.233 459.114 436.571 459.679 437.968 460.225V477.078ZM450.404 480.997C448.909 480.619 447.456 480.224 446.049 479.812V462.958C447.455 463.37 448.907 463.765 450.404 464.143V480.997ZM464.339 483.78C462.58 483.514 460.838 483.22 459.113 482.898V466.044C460.838 466.366 462.581 466.659 464.339 466.927V483.78ZM478.626 485.35C476.878 485.228 475.135 485.082 473.4 484.911V468.058C475.135 468.229 476.878 468.374 478.626 468.497V485.35ZM494.867 485.802C493.128 485.826 491.385 485.826 489.641 485.804V468.951C491.385 468.974 493.128 468.972 494.867 468.948V485.802ZM511.091 484.902C509.364 485.072 507.622 485.218 505.865 485.342V468.49C507.621 468.366 509.364 468.219 511.091 468.049V484.902ZM525.378 482.899C523.663 483.218 521.919 483.508 520.152 483.776V466.923C521.92 466.655 523.663 466.365 525.378 466.045V482.899ZM538.441 479.816C537.023 480.232 535.571 480.626 534.087 481.001V464.148C535.571 463.775 537.023 463.379 538.441 462.962V479.816ZM550.53 475.38C549.245 475.969 547.908 476.534 546.524 477.074V460.223C547.908 459.681 549.245 459.115 550.53 458.527V475.38ZM559.492 470.274C559.091 470.563 558.675 470.851 558.246 471.137C557.529 471.615 556.781 472.082 556.007 472.538V455.685C556.781 455.228 557.529 454.762 558.246 454.284C558.674 453.997 559.091 453.71 559.492 453.419V470.274ZM566.56 463.001C565.877 464.151 565.007 465.292 563.946 466.422V449.568C565.007 448.438 565.878 447.293 566.56 446.141V463.001Z" fill="#FAA932"/>
<path fill-rule="evenodd" clip-rule="evenodd" d="M420.544 466.408C419.492 465.282 418.62 464.131 417.931 462.964V446.111C418.619 447.276 419.493 448.426 420.544 449.552V466.408ZM428.484 472.55C427.231 471.813 426.071 471.055 425 470.281V453.427C426.069 454.202 427.232 454.957 428.484 455.696V472.55ZM437.968 477.078C436.569 476.533 435.234 475.968 433.962 475.386V458.534C435.233 459.114 436.571 459.679 437.968 460.225V477.078ZM450.404 480.997C448.909 480.619 447.456 480.224 446.049 479.812V462.958C447.455 463.37 448.907 463.765 450.404 464.143V480.997ZM464.339 483.78C462.58 483.514 460.838 483.22 459.113 482.898V466.044C460.838 466.366 462.581 466.659 464.339 466.927V483.78ZM478.626 485.35C476.878 485.228 475.135 485.082 473.4 484.911V468.058C475.135 468.229 476.878 468.374 478.626 468.497V485.35ZM494.867 485.802C493.128 485.826 491.385 485.826 489.641 485.804V468.951C491.385 468.974 493.128 468.972 494.867 468.948V485.802ZM511.091 484.902C509.364 485.072 507.622 485.218 505.865 485.342V468.49C507.621 468.366 509.364 468.219 511.091 468.049V484.902ZM525.378 482.899C523.663 483.218 521.919 483.508 520.152 483.776V466.923C521.92 466.655 523.663 466.365 525.378 466.045V482.899ZM538.441 479.816C537.023 480.232 535.571 480.626 534.087 481.001V464.148C535.571 463.775 537.023 463.379 538.441 462.962V479.816ZM550.53 475.38C549.245 475.969 547.908 476.534 546.524 477.074V460.223C547.908 459.681 549.245 459.115 550.53 458.527V475.38ZM559.492 470.274C559.091 470.563 558.675 470.851 558.246 471.137C557.529 471.615 556.781 472.082 556.007 472.538V455.685C556.781 455.228 557.529 454.762 558.246 454.284C558.674 453.997 559.091 453.71 559.492 453.419V470.274ZM566.56 463.001C565.877 464.151 565.007 465.292 563.946 466.422V449.568C565.007 448.438 565.878 447.293 566.56 446.141V463.001Z" fill="#BB7D3C"/>
<path fill-rule="evenodd" clip-rule="evenodd" d="M525.844 392.428C562.294 400.535 574.783 418.49 553.74 432.532C532.694 446.574 486.083 451.386 449.633 443.279C413.182 435.171 400.693 417.215 421.737 403.174C442.783 389.132 489.393 384.32 525.844 392.428Z" fill="#FDDC2C"/>
<path fill-rule="evenodd" clip-rule="evenodd" d="M489.844 447.203C476.212 447.354 462.308 446.098 449.632 443.278C413.182 435.173 400.692 417.215 421.738 403.173C436.255 393.486 462.943 388.193 490.066 388.503C464.503 388.786 439.904 394.015 426.18 403.173C405.135 417.215 417.624 435.173 454.074 443.278C465.376 445.791 477.654 447.063 489.844 447.203Z" fill="#FDF5A1"/>
<path fill-rule="evenodd" clip-rule="evenodd" d="M518.768 397.149C548.45 403.751 558.621 418.372 541.485 429.806C524.347 441.24 486.391 445.158 456.709 438.557C427.027 431.957 416.855 417.334 433.993 405.899C451.13 394.465 489.086 390.547 518.768 397.149Z" fill="#FAA932"/>
<path fill-rule="evenodd" clip-rule="evenodd" d="M563.946 418.387L563.961 434.496C564.066 439.553 560.778 444.69 553.739 449.386C532.696 463.427 486.083 468.24 449.632 460.132C425.024 454.66 411.338 444.698 411.516 434.481L411.517 418.409L411.53 418.353C411.995 428.313 425.607 437.936 449.632 443.279C486.084 451.386 532.695 446.574 553.739 432.532C560.434 428.065 563.73 423.202 563.946 418.387Z" fill="#FAA932"/>
<path fill-rule="evenodd" clip-rule="evenodd" d="M416.037 444.657C414.986 443.529 414.114 442.38 413.423 441.213V424.358C414.113 425.525 414.987 426.674 416.037 427.801V444.657ZM423.977 450.798C422.724 450.061 421.563 449.303 420.493 448.53V431.675C421.562 432.449 422.725 433.206 423.977 433.945V450.798ZM433.461 455.326C432.062 454.781 430.727 454.216 429.455 453.634V436.781C430.726 437.362 432.063 437.927 433.461 438.472V455.326ZM445.898 459.245C444.402 458.867 442.948 458.472 441.542 458.06V441.206C442.947 441.618 444.401 442.014 445.898 442.392V459.245ZM459.832 462.029C458.073 461.762 456.331 461.469 454.606 461.147V444.293C456.331 444.615 458.073 444.908 459.832 445.175V462.029ZM474.118 463.598C472.371 463.475 470.628 463.331 468.893 463.16V446.306C470.628 446.478 472.371 446.622 474.118 446.746V463.598ZM490.36 464.049C488.621 464.074 486.877 464.075 485.134 464.052V447.199C486.877 447.222 488.621 447.221 490.36 447.195V464.049ZM506.583 463.151C504.858 463.321 503.114 463.467 501.358 463.59V446.738C503.113 446.614 504.858 446.468 506.583 446.298V463.151ZM520.87 461.147C519.155 461.467 517.411 461.757 515.644 462.024V445.171C517.412 444.904 519.155 444.612 520.87 444.294V461.147ZM533.934 458.063C532.515 458.48 531.063 458.875 529.579 459.249V442.396C531.063 442.022 532.515 441.626 533.934 441.21V458.063ZM546.022 453.629C544.739 454.218 543.401 454.783 542.016 455.323V438.47C543.401 437.929 544.739 437.363 546.022 436.776V453.629ZM554.984 448.521C554.583 448.811 554.168 449.099 553.738 449.386C553.023 449.864 552.274 450.329 551.499 450.786V433.932C552.274 433.476 553.023 433.01 553.738 432.533C554.167 432.246 554.583 431.957 554.984 431.668V448.521ZM562.053 441.248C561.37 442.399 560.5 443.541 559.439 444.671V427.815C560.5 426.686 561.371 425.542 562.053 424.39V441.248Z" fill="#FAA932"/>
<path fill-rule="evenodd" clip-rule="evenodd" d="M416.037 444.657C414.986 443.529 414.114 442.38 413.423 441.213V424.358C414.113 425.525 414.987 426.674 416.037 427.801V444.657ZM423.977 450.798C422.724 450.061 421.563 449.303 420.493 448.53V431.675C421.562 432.449 422.725 433.206 423.977 433.945V450.798ZM433.461 455.326C432.062 454.781 430.727 454.216 429.455 453.634V436.781C430.726 437.362 432.063 437.927 433.461 438.472V455.326ZM445.898 459.245C444.402 458.867 442.948 458.472 441.542 458.06V441.206C442.947 441.618 444.401 442.014 445.898 442.392V459.245ZM459.832 462.029C458.073 461.762 456.331 461.469 454.606 461.147V444.293C456.331 444.615 458.073 444.908 459.832 445.175V462.029ZM474.118 463.598C472.371 463.475 470.628 463.331 468.893 463.16V446.306C470.628 446.478 472.371 446.622 474.118 446.746V463.598ZM490.36 464.049C488.621 464.074 486.877 464.075 485.134 464.052V447.199C486.877 447.222 488.621 447.221 490.36 447.195V464.049ZM506.583 463.151C504.858 463.321 503.114 463.467 501.358 463.59V446.738C503.113 446.614 504.858 446.468 506.583 446.298V463.151ZM520.87 461.147C519.155 461.467 517.411 461.757 515.644 462.024V445.171C517.412 444.904 519.155 444.612 520.87 444.294V461.147ZM533.934 458.063C532.515 458.48 531.063 458.875 529.579 459.249V442.396C531.063 442.022 532.515 441.626 533.934 441.21V458.063ZM546.022 453.629C544.739 454.218 543.401 454.783 542.016 455.323V438.47C543.401 437.929 544.739 437.363 546.022 436.776V453.629ZM554.984 448.521C554.583 448.811 554.168 449.099 553.738 449.386C553.023 449.864 552.274 450.329 551.499 450.786V433.932C552.274 433.476 553.023 433.01 553.738 432.533C554.167 432.246 554.583 431.957 554.984 431.668V448.521ZM562.053 441.248C561.37 442.399 560.5 443.541 559.439 444.671V427.815C560.5 426.686 561.371 425.542 562.053 424.39V441.248Z" fill="#BB7D3C"/>
<path fill-rule="evenodd" clip-rule="evenodd" d="M521.337 370.348C557.788 378.455 570.277 396.411 549.232 410.453C528.188 424.495 481.576 429.305 445.126 421.199C408.676 413.092 396.185 395.136 417.23 381.094C438.275 367.052 484.886 362.241 521.337 370.348Z" fill="#FDDC2C"/>
<path fill-rule="evenodd" clip-rule="evenodd" d="M485.337 425.124C471.705 425.274 457.802 424.019 445.125 421.198C408.674 413.093 396.186 395.135 417.23 381.093C431.747 371.407 458.435 366.114 485.558 366.424C459.996 366.707 435.396 371.935 421.673 381.093C400.627 395.135 413.116 413.093 449.567 421.198C460.869 423.712 473.147 424.984 485.337 425.124Z" fill="#FDF5A1"/>
<path fill-rule="evenodd" clip-rule="evenodd" d="M514.261 375.07C543.943 381.671 554.114 396.293 536.977 407.726C519.839 419.161 481.883 423.079 452.201 416.478C422.519 409.877 412.348 395.254 429.486 383.82C446.623 372.385 484.579 368.467 514.261 375.07Z" fill="#FAA932"/>
<path fill-rule="evenodd" clip-rule="evenodd" d="M559.438 396.306L559.453 412.416C559.559 417.474 556.271 422.61 549.232 427.306C528.188 441.347 481.576 446.159 445.126 438.053C420.517 432.581 406.831 422.617 407.01 412.401L407.011 396.329L407.022 396.274C407.487 406.234 421.099 415.856 445.126 421.199C481.576 429.306 528.187 424.494 549.232 410.452C555.926 405.986 559.222 401.123 559.438 396.306Z" fill="#FAA932"/>
<path fill-rule="evenodd" clip-rule="evenodd" d="M411.531 422.576C410.479 421.45 409.606 420.301 408.917 419.132V402.279C409.606 403.445 410.48 404.594 411.531 405.72V422.576ZM419.469 428.719C418.217 427.981 417.056 427.223 415.986 426.449V409.595C417.055 410.37 418.219 411.126 419.469 411.865V428.719ZM428.954 433.246C427.556 432.701 426.22 432.137 424.948 431.554V414.702C426.219 415.283 427.557 415.847 428.954 416.393V433.246ZM441.39 437.165C439.894 436.787 438.442 436.393 437.036 435.98V419.127C438.441 419.539 439.893 419.933 441.39 420.311V437.165ZM455.324 439.949C453.566 439.683 451.824 439.388 450.098 439.066V422.212C451.824 422.535 453.567 422.828 455.324 423.096V439.949ZM469.611 441.518C467.863 441.396 466.121 441.25 464.385 441.079V424.226C466.121 424.397 467.863 424.542 469.611 424.665V441.518ZM485.853 441.97C484.115 441.993 482.371 441.994 480.627 441.972V425.119C482.371 425.143 484.115 425.14 485.853 425.116V441.97ZM502.077 441.071C500.35 441.241 498.608 441.386 496.851 441.51V424.658C498.606 424.535 500.35 424.388 502.077 424.218V441.071ZM516.364 439.067C514.649 439.386 512.905 439.676 511.138 439.945V423.092C512.906 422.823 514.649 422.533 516.364 422.213V439.067ZM529.428 435.984C528.009 436.4 526.557 436.796 525.072 437.17V420.317C526.557 419.943 528.009 419.547 529.428 419.13V435.984ZM541.516 431.549C540.231 432.139 538.894 432.702 537.51 433.243V416.391C538.894 415.849 540.231 415.284 541.516 414.696V431.549ZM550.478 426.442C550.076 426.731 549.662 427.019 549.232 427.305C548.515 427.785 547.767 428.25 546.993 428.706V411.853C547.767 411.396 548.515 410.931 549.232 410.452C549.661 410.165 550.076 409.878 550.478 409.588V426.442ZM557.547 419.169C556.864 420.32 555.993 421.461 554.932 422.59V405.736C555.993 404.607 556.864 403.461 557.547 402.31V419.169Z" fill="#FAA932"/>
<path fill-rule="evenodd" clip-rule="evenodd" d="M411.531 422.576C410.479 421.45 409.606 420.301 408.917 419.132V402.279C409.606 403.445 410.48 404.594 411.531 405.72V422.576ZM419.469 428.719C418.217 427.981 417.056 427.223 415.986 426.449V409.595C417.055 410.37 418.219 411.126 419.469 411.865V428.719ZM428.954 433.246C427.556 432.701 426.22 432.137 424.948 431.554V414.702C426.219 415.283 427.557 415.847 428.954 416.393V433.246ZM441.39 437.165C439.894 436.787 438.442 436.393 437.036 435.98V419.127C438.441 419.539 439.893 419.933 441.39 420.311V437.165ZM455.324 439.949C453.566 439.683 451.824 439.388 450.098 439.066V422.212C451.824 422.535 453.567 422.828 455.324 423.096V439.949ZM469.611 441.518C467.863 441.396 466.121 441.25 464.385 441.079V424.226C466.121 424.397 467.863 424.542 469.611 424.665V441.518ZM485.853 441.97C484.115 441.993 482.371 441.994 480.627 441.972V425.119C482.371 425.143 484.115 425.14 485.853 425.116V441.97ZM502.077 441.071C500.35 441.241 498.608 441.386 496.851 441.51V424.658C498.606 424.535 500.35 424.388 502.077 424.218V441.071ZM516.364 439.067C514.649 439.386 512.905 439.676 511.138 439.945V423.092C512.906 422.823 514.649 422.533 516.364 422.213V439.067ZM529.428 435.984C528.009 436.4 526.557 436.796 525.072 437.17V420.317C526.557 419.943 528.009 419.547 529.428 419.13V435.984ZM541.516 431.549C540.231 432.139 538.894 432.702 537.51 433.243V416.391C538.894 415.849 540.231 415.284 541.516 414.696V431.549ZM550.478 426.442C550.076 426.731 549.662 427.019 549.232 427.305C548.515 427.785 547.767 428.25 546.993 428.706V411.853C547.767 411.396 548.515 410.931 549.232 410.452C549.661 410.165 550.076 409.878 550.478 409.588V426.442ZM557.547 419.169C556.864 420.32 555.993 421.461 554.932 422.59V405.736C555.993 404.607 556.864 403.461 557.547 402.31V419.169Z" fill="#BB7D3C"/>
<path fill-rule="evenodd" clip-rule="evenodd" d="M525.844 348.138C562.294 356.245 574.783 374.2 553.74 388.243C532.694 402.285 486.083 407.095 449.633 398.989C413.182 390.882 400.693 372.926 421.737 358.884C442.783 344.842 489.393 340.031 525.844 348.138Z" fill="#FDDC2C"/>
<path fill-rule="evenodd" clip-rule="evenodd" d="M489.844 402.914C476.212 403.064 462.308 401.809 449.632 398.988C413.182 390.883 400.692 372.925 421.738 358.883C436.255 349.197 462.943 343.904 490.066 344.214C464.503 344.497 439.904 349.725 426.18 358.883C405.135 372.925 417.624 390.883 454.074 398.988C465.376 401.503 477.654 402.774 489.844 402.914Z" fill="#FDF5A1"/>
<path fill-rule="evenodd" clip-rule="evenodd" d="M518.768 352.86C548.45 359.461 558.621 374.083 541.485 385.516C524.347 396.951 486.391 400.869 456.709 394.268C427.027 387.667 416.855 373.045 433.993 361.61C451.13 350.175 489.086 346.257 518.768 352.86Z" fill="#FAA932"/>
<path fill-rule="evenodd" clip-rule="evenodd" d="M523.08 352.86C552.762 359.461 562.934 374.083 545.797 385.517C533.916 393.445 512.028 397.757 489.828 397.458C510.512 397.182 530.373 392.931 541.485 385.517C558.622 374.083 548.451 359.462 518.769 352.86C509.665 350.835 499.783 349.802 489.96 349.67C501.18 349.52 512.642 350.539 523.08 352.86Z" fill="#FDF5A1"/>
<path fill-rule="evenodd" clip-rule="evenodd" d="M489.896 397.457C478.656 397.612 467.169 396.594 456.709 394.268C427.025 387.666 416.856 373.044 433.993 361.61C445.886 353.674 467.802 349.362 490.023 349.67C469.364 349.954 449.533 354.204 438.435 361.61C421.299 373.044 431.467 387.666 461.152 394.268C470.236 396.288 480.096 397.321 489.896 397.457Z" fill="#BB7D3C"/>
<path fill-rule="evenodd" clip-rule="evenodd" d="M476.744 386.719C488.04 388.253 498.693 386.496 503.292 383.427C510.242 378.789 502.656 374.874 497.062 371.676C492.604 369.138 490.48 367.481 492.166 366.357C493.649 365.369 496.659 364.855 500.378 365.682C505.07 366.726 508.349 369.184 509.57 370.182C510.724 370.986 512.64 371.047 513.821 370.809L522.272 369.188C522.983 369.029 524.081 368.453 523.375 367.979C522.137 366.894 519.04 364.475 513.032 362.506L517.354 359.622C517.707 359.387 517.778 359.118 517.609 358.874C517.439 358.632 517.028 358.413 516.418 358.277L510.465 356.953C509.855 356.817 509.157 356.789 508.525 356.855C507.893 356.921 507.325 357.079 506.973 357.314L502.303 360.864C491.087 359.39 481.992 360.545 477.644 363.446C471.512 367.538 477.338 371.29 483.524 374.802C487.73 377.193 489.626 378.842 487.48 380.275C485.69 381.467 481.845 381.749 478.305 380.963C472.726 379.721 470.054 377.49 468.544 376.29C468.017 375.855 466.602 375.539 465.228 375.826L457.017 377.682C455.732 377.988 455.539 378.353 455.838 378.784C456.543 379.799 459.105 382.177 466.361 384.41L462.064 387.277C461.713 387.512 461.641 387.783 461.81 388.024L461.812 388.025C461.984 388.269 462.394 388.489 463 388.623L468.953 389.948C469.559 390.083 470.256 390.109 470.89 390.045L470.892 390.044C471.524 389.979 472.093 389.821 472.446 389.587L476.744 386.719Z" fill="#BB7D3C"/>
<path fill-rule="evenodd" clip-rule="evenodd" d="M474.264 386.719C485.559 388.254 496.212 386.496 500.811 383.428C507.762 378.79 500.175 374.874 494.582 371.675C490.122 369.138 488 367.482 489.685 366.357C491.167 365.368 494.179 364.856 497.897 365.683C502.589 366.727 505.868 369.184 507.088 370.183C508.244 370.986 510.159 371.047 511.34 370.811L519.791 369.188C520.502 369.028 521.6 368.454 520.895 367.979C519.657 366.894 516.559 364.475 510.551 362.507L514.873 359.623C515.226 359.386 515.296 359.119 515.128 358.875C514.959 358.633 514.548 358.413 513.938 358.277L507.985 356.953C507.374 356.817 506.676 356.79 506.044 356.855C505.413 356.921 504.844 357.079 504.493 357.314L500.148 360.212C488.932 358.737 479.513 360.544 475.164 363.446C469.031 367.538 474.857 371.29 481.044 374.803C485.249 377.194 487.146 378.842 484.999 380.275C483.21 381.467 479.364 381.749 475.825 380.962C470.246 379.722 467.572 377.49 466.064 376.291C465.536 375.855 464.12 375.539 462.748 375.827L454.535 377.682C453.252 377.988 453.057 378.354 453.356 378.784C454.063 379.8 456.624 382.177 463.88 384.41L459.583 387.278C459.232 387.513 459.16 387.782 459.33 388.025L459.332 388.026C459.503 388.269 459.912 388.489 460.519 388.624L466.472 389.948C467.078 390.083 467.776 390.109 468.409 390.044L468.412 390.045C469.044 389.981 469.613 389.821 469.965 389.587L474.264 386.719Z" fill="#FDDC2C"/>
<path fill-rule="evenodd" clip-rule="evenodd" d="M465.015 375.845C464.37 375.697 463.55 375.658 462.748 375.826L454.536 377.682C453.25 377.987 453.058 378.354 453.357 378.783C454.063 379.8 456.625 382.177 463.881 384.41L459.583 387.277C459.232 387.513 459.16 387.783 459.329 388.025L459.332 388.026C459.503 388.269 459.913 388.489 460.52 388.622L466.472 389.947C467.079 390.082 467.776 390.109 468.409 390.045H468.412C468.589 390.027 468.76 390 468.924 389.968L468.824 389.947L462.873 388.622C462.266 388.489 461.856 388.269 461.685 388.026L461.682 388.025C461.513 387.783 461.584 387.513 461.935 387.277L466.232 384.41C458.977 382.177 456.416 379.8 455.71 378.783C455.41 378.354 455.603 377.987 456.889 377.682L465.015 375.845ZM493.476 359.699C485.268 359.529 478.616 361.142 475.163 363.446C469.032 367.538 474.857 371.29 481.044 374.803C485.249 377.192 487.146 378.842 484.999 380.275C484.093 380.878 482.661 381.248 481.008 381.365C483.607 381.536 486.036 381.152 487.351 380.275C489.498 378.842 487.601 377.192 483.396 374.803C477.21 371.29 471.384 367.538 477.516 363.446C480.633 361.367 486.354 359.85 493.476 359.699ZM507.885 356.931C507.3 356.813 506.642 356.794 506.044 356.855C505.413 356.921 504.844 357.079 504.492 357.313L500.156 360.21C500.819 360.275 501.442 360.39 502.069 360.497L506.844 357.313C507.098 357.143 507.463 357.013 507.885 356.931ZM495.511 365.319C496.264 365.379 497.062 365.497 497.897 365.683C502.589 366.726 505.87 369.183 507.088 370.183C508.199 370.953 510.009 371.041 511.198 370.836C510.551 370.728 509.928 370.52 509.441 370.183C508.222 369.183 504.941 366.726 500.25 365.683C498.481 365.289 496.872 365.198 495.511 365.319Z" fill="#FDF5A1"/>
<path fill-rule="evenodd" clip-rule="evenodd" d="M563.946 374.096L563.961 390.206C564.066 395.264 560.778 400.401 553.739 405.096C532.696 419.137 486.083 423.949 449.632 415.843C425.024 410.371 411.338 400.407 411.516 390.191L411.517 374.12L411.53 374.064C411.995 384.024 425.607 393.646 449.632 398.989C486.084 407.096 532.695 402.284 553.739 388.242C560.434 383.776 563.73 378.913 563.946 374.096Z" fill="#FAA932"/>
<path fill-rule="evenodd" clip-rule="evenodd" d="M416.037 400.367C414.986 399.24 414.114 398.091 413.423 396.922V380.069C414.113 381.235 414.987 382.384 416.037 383.51V400.367ZM423.977 406.509C422.724 405.771 421.563 405.013 420.493 404.239V387.385C421.562 388.16 422.725 388.916 423.977 389.655V406.509ZM433.461 411.036C432.062 410.491 430.727 409.927 429.455 409.344V392.492C430.726 393.073 432.063 393.637 433.461 394.183V411.036ZM445.898 414.955C444.402 414.577 442.948 414.183 441.542 413.77V396.917C442.947 397.329 444.401 397.723 445.898 398.101V414.955ZM459.832 417.739C458.073 417.473 456.331 417.178 454.606 416.856V400.002C456.331 400.325 458.073 400.618 459.832 400.886V417.739ZM474.118 419.308C472.371 419.186 470.628 419.04 468.893 418.87V402.016C470.628 402.187 472.371 402.332 474.118 402.455V419.308ZM490.36 419.76C488.621 419.783 486.877 419.785 485.134 419.762V402.909C486.877 402.933 488.621 402.93 490.36 402.906V419.76ZM506.583 418.861C504.858 419.032 503.114 419.177 501.358 419.3V402.449C503.113 402.325 504.858 402.178 506.583 402.008V418.861ZM520.87 416.857C519.155 417.176 517.411 417.467 515.644 417.735V400.882C517.412 400.614 519.155 400.323 520.87 400.003V416.857ZM533.934 413.774C532.515 414.19 531.063 414.586 529.579 414.96V398.107C531.063 397.733 532.515 397.337 533.934 396.92V413.774ZM546.022 409.34C544.739 409.929 543.401 410.494 542.016 411.033V394.181C543.401 393.639 544.739 393.074 546.022 392.486V409.34ZM554.984 404.231C554.583 404.521 554.168 404.809 553.738 405.095C553.023 405.575 552.274 406.04 551.499 406.496V389.643C552.274 389.186 553.023 388.721 553.738 388.242C554.167 387.955 554.583 387.668 554.984 387.378V404.231ZM562.053 396.959C561.37 398.11 560.5 399.251 559.439 400.38V383.526C560.5 382.397 561.371 381.251 562.053 380.1V396.959Z" fill="#FAA932"/>
<path fill-rule="evenodd" clip-rule="evenodd" d="M416.037 400.367C414.986 399.24 414.114 398.091 413.423 396.922V380.069C414.113 381.235 414.987 382.384 416.037 383.51V400.367ZM423.977 406.509C422.724 405.771 421.563 405.013 420.493 404.239V387.385C421.562 388.16 422.725 388.916 423.977 389.655V406.509ZM433.461 411.036C432.062 410.491 430.727 409.927 429.455 409.344V392.492C430.726 393.073 432.063 393.637 433.461 394.183V411.036ZM445.898 414.955C444.402 414.577 442.948 414.183 441.542 413.77V396.917C442.947 397.329 444.401 397.723 445.898 398.101V414.955ZM459.832 417.739C458.073 417.473 456.331 417.178 454.606 416.856V400.002C456.331 400.325 458.073 400.618 459.832 400.886V417.739ZM474.118 419.308C472.371 419.186 470.628 419.04 468.893 418.87V402.016C470.628 402.187 472.371 402.332 474.118 402.455V419.308ZM490.36 419.76C488.621 419.783 486.877 419.785 485.134 419.762V402.909C486.877 402.933 488.621 402.93 490.36 402.906V419.76ZM506.583 418.861C504.858 419.032 503.114 419.177 501.358 419.3V402.449C503.113 402.325 504.858 402.178 506.583 402.008V418.861ZM520.87 416.857C519.155 417.176 517.411 417.467 515.644 417.735V400.882C517.412 400.614 519.155 400.323 520.87 400.003V416.857ZM533.934 413.774C532.515 414.19 531.063 414.586 529.579 414.96V398.107C531.063 397.733 532.515 397.337 533.934 396.92V413.774ZM546.022 409.34C544.739 409.929 543.401 410.494 542.016 411.033V394.181C543.401 393.639 544.739 393.074 546.022 392.486V409.34ZM554.984 404.231C554.583 404.521 554.168 404.809 553.738 405.095C553.023 405.575 552.274 406.04 551.499 406.496V389.643C552.274 389.186 553.023 388.721 553.738 388.242C554.167 387.955 554.583 387.668 554.984 387.378V404.231ZM562.053 396.959C561.37 398.11 560.5 399.251 559.439 400.38V383.526C560.5 382.397 561.371 381.251 562.053 380.1V396.959Z" fill="#BB7D3C"/>
</g>
</svg>
