<svg width="34" height="33" viewBox="0 0 34 33" fill="none" xmlns="http://www.w3.org/2000/svg">
<path fill-rule="evenodd" clip-rule="evenodd" d="M2.50492 0.8509C2.15198 0.321203 1.41066 0.171613 0.881245 0.528583C0.340068 0.874037 0.187092 1.5995 0.551798 2.11768L2.79904 5.42253L6.19892 17.9049C7.0695 21.1177 10.0576 23.3631 13.4576 23.3631H28.5872C29.2342 23.3631 29.7637 22.8449 29.7637 22.2116C29.7637 21.5782 29.2342 21.0601 28.5872 21.0601H13.4576C11.6106 21.0601 9.94026 20.0928 9.02262 18.5958L28.9049 16.6152C30.446 16.4655 31.693 15.3601 32.0106 13.8861L33.2695 7.94428C33.7283 5.80246 32.0461 3.78732 29.8108 3.78732H4.51664L2.50492 0.8509ZM8.21063 16.3619L5.41077 6.09036H29.8108C30.5637 6.09036 31.1166 6.75818 30.9637 7.47212L29.7048 13.414C29.5989 13.9091 29.1873 14.2777 28.6696 14.3237L8.21063 16.3619Z" fill="white"/>
<path fill-rule="evenodd" clip-rule="evenodd" d="M7.41064 29.1206C7.41064 27.209 8.98712 25.666 10.9401 25.666C12.893 25.666 14.4695 27.209 14.4695 29.1206C14.4695 31.0321 12.893 32.5751 10.9401 32.5751C8.98712 32.5751 7.41064 31.0321 7.41064 29.1206ZM10.9401 27.969C10.293 27.969 9.76359 28.4872 9.76359 29.1206C9.76359 29.7539 10.293 30.2721 10.9401 30.2721C11.5871 30.2721 12.1165 29.7539 12.1165 29.1206C12.1165 28.4872 11.5871 27.969 10.9401 27.969Z" fill="white"/>
<path fill-rule="evenodd" clip-rule="evenodd" d="M22.7046 29.1206C22.7046 27.209 24.2811 25.666 26.234 25.666C28.1869 25.666 29.7634 27.209 29.7634 29.1206C29.7634 31.0321 28.1869 32.5751 26.234 32.5751C24.2811 32.5751 22.7046 31.0321 22.7046 29.1206ZM26.234 27.969C25.5869 27.969 25.0575 28.4872 25.0575 29.1206C25.0575 29.7539 25.5869 30.2721 26.234 30.2721C26.8811 30.2721 27.4105 29.7539 27.4105 29.1206C27.4105 28.4872 26.8811 27.969 26.234 27.969Z" fill="white"/>
</svg>
