<svg width="50" height="54" viewBox="0 0 50 54" fill="none" xmlns="http://www.w3.org/2000/svg">
<path fill-rule="evenodd" clip-rule="evenodd" d="M24.9999 0C17.5654 0 11.5386 6.02683 11.5386 13.4613C11.5386 20.8958 17.5654 26.9227 24.9999 26.9227C32.4344 26.9227 38.4613 20.8958 38.4613 13.4613C38.4613 6.02683 32.4344 0 24.9999 0Z" fill="#6B5581"/>
<path fill-rule="evenodd" clip-rule="evenodd" d="M8.85409 30.7686C6.31567 30.7686 3.76569 32.0397 2.53494 34.5224C1.52726 36.5531 0.294599 39.5723 0.0253719 42.6954C-0.172702 45.0069 0.788805 47.3876 2.9157 48.7106C6.28295 50.801 13.2213 53.8451 25 53.8451C36.7787 53.8451 43.717 50.801 47.0843 48.7106C49.2112 47.3876 50.1727 45.0069 49.9746 42.6954C49.7054 39.5723 48.4727 36.5531 47.4651 34.5224C46.2343 32.0397 43.6843 30.7686 41.1459 30.7686H8.85409Z" fill="#6B5581"/>
</svg>
